HIERARCHY
ROOT pelvis
{
  OFFSET 0 100 0
  CHANNELS 6 Xposition Yposition Zposition Zrotation Xrotation Yrotation
  JOINT pelvis_right_femur
  {
    OFFSET -10.78128 -3.44521 -0.5502486
    CHANNELS 3 Zrotation Xrotation Yrotation
    JOINT right_femur_tibia
    {
      OFFSET -0.8047443 -44.0398 -0.1307829
      CHANNELS 3 Zrotation Xrotation Yrotation
      JOINT right_tibia_foot
      {
        OFFSET 3.006224 -47.83518 -5
        CHANNELS 3 Zrotation Xrotation Yrotation
        End Site
        {
          OFFSET 0 -5 15
        }
      }
    }
  }
  JOINT pelvis_left_femur
  {
    OFFSET 10.78128 -3.44521 -0.5502486
    CHANNELS 3 Zrotation Xrotation Yrotation
    JOINT left_femur_tibia
    {
      OFFSET 0.8047443 -44.0398 -0.1307829
      CHANNELS 3 Zrotation Xrotation Yrotation
      JOINT left_tibia_foot
      {
        OFFSET -4.370144 -48.10324 -4.275266
        CHANNELS 3 Zrotation Xrotation Yrotation
        End Site
        {
          OFFSET 0 -5 15
        }
      }
    }
  }
  JOINT pelvis_spine1
  {
    OFFSET 0 6.468898 -3.129235
    CHANNELS 3 Zrotation Xrotation Yrotation
    JOINT spine1
    {
      OFFSET 0 23.15396 4.99043
      CHANNELS 3 Zrotation Xrotation Yrotation
      JOINT spine2
      {
        OFFSET 0 20.79997 -5.064912
        CHANNELS 3 Zrotation Xrotation Yrotation
        JOINT neck
        {
          OFFSET 0 14.38658 9.616178
          CHANNELS 3 Zrotation Xrotation Yrotation
          End Site
          {
            OFFSET 0 20 0
          }
        }
      }
      JOINT right_manubrium
      {
        OFFSET -5.722621 16.35077 3.967754
        CHANNELS 3 Zrotation Xrotation Yrotation
        JOINT right_clavicle
        {
          OFFSET -13.16364 1.694482 -4.693211
          CHANNELS 3 Zrotation Xrotation Yrotation
          JOINT right_humerus
          {
            OFFSET -28.5034 -0.3100689 -2.792744
            CHANNELS 3 Zrotation Xrotation Yrotation
            JOINT right_radius
            {
              OFFSET -25.15693 0.02248979 -1.271978
              CHANNELS 3 Zrotation Xrotation Yrotation
              End Site
              {
                OFFSET -15 0 0
              }
            }
          }
        }
      }
      JOINT left_manubrium
      {
        OFFSET 5.722621 16.35077 3.967754
        CHANNELS 3 Zrotation Xrotation Yrotation
        JOINT left_clavicle
        {
          OFFSET 13.16364 1.694482 -4.693211
          CHANNELS 3 Zrotation Xrotation Yrotation
          JOINT left_humerus
          {
            OFFSET 29.39168 -1.063119 -2.237045
            CHANNELS 3 Zrotation Xrotation Yrotation
            JOINT left_radius
            {
              OFFSET 24.59957 -0.9528479 0.9047498
              CHANNELS 3 Zrotation Xrotation Yrotation
              End Site
              {
                OFFSET 15 -0 -0
              }
            }
          }
        }
      }
    }
  }
}
MOTION
Frames: 21
Frame Time: 0.0416666666667
0 103.5113 0 1.459654 -3.180403 0.1386497 1.307226 -10.4884 6.92043 -0 40.12716 -0 -7.056368 -15.75422 -3.762538 -6.492871 12.19343 -24.22324 -0 5.407346 -0 0.2965917 -18.74789 23.2241 -0.1051484 -1.613643 4.775333 -0.1869183 7.702576 -6.927838 2.126661 22.08244 7.765398 5.280813 -20.7931 8.620128 6.497171 -17.67845 10.49509 87.97055 36.09509 -23.28162 -0 0 16.81388 -7.167417 9.882252 2.233356 7.337601 -21.23705 -2.45371 -100.3752 41.51456 28.08914 0 0 -25.58039 -10.74721 18.75873 30.11153
0.1343187 103.6574 1.306757 0.8027068 -2.585171 0.1142753 2.375914 -12.6867 8.207137 -0 42.26184 -0 -6.849172 -15.45278 -4.657258 -5.953684 12.37695 -24.34518 -0 5.896986 -0 -0.932719 -19.72285 23.07785 -0.01526786 -1.581514 4.7395 -0.1642066 7.746672 -6.986567 2.070985 21.99506 7.882411 5.36575 -20.99131 8.665293 6.45626 -17.67233 10.48994 88.24758 36.10042 -23.62227 -0 0 16.62385 -7.060134 9.797156 2.163584 7.462806 -21.39517 -2.452591 -100.2152 41.39612 27.88314 0 0 -25.8681 -10.31847 18.62863 29.66793
0.269588 103.7408 2.86222 0.04617374 -1.548158 0.06450279 3.69363 -17.60266 8.003136 -0 39.95963 -0 -7.055837 -12.86178 -4.549917 -5.539028 12.28367 -23.00446 -0 6.308092 -0 -0.8353379 -21.02799 22.40556 0.04409625 -1.360017 4.654778 -0.03338729 7.783475 -7.042579 1.821049 21.92288 8.16866 5.446287 -21.55971 8.746366 6.240308 -17.60415 10.49395 88.64478 36.66388 -23.80577 -0 0 15.75246 -7.803422 10.23569 2.616702 7.457726 -21.61321 -2.436138 -99.0579 40.48956 26.83768 0 0 -26.18962 -8.530134 18.10034 27.62993
0.4081109 103.7259 4.62992 -0.4934638 -0.698692 0.03427869 4.649755 -21.50196 7.877502 -0 37.75141 -0 -7.069374 -11.11577 -4.513864 -5.242114 12.27652 -21.94358 -0 6.489783 -0 -0.7811325 -22.03519 21.7285 0.01965024 -1.205482 4.490959 0.2081126 7.787414 -7.166913 1.611564 21.84902 8.331907 5.468649 -22.10964 8.753519 6.095111 -17.55075 10.54479 88.8979 36.83067 -23.986 -0 0 15.10285 -8.116254 10.24882 2.97857 7.355754 -21.67875 -2.471968 -98.23953 39.78519 26.05818 0 0 -26.28556 -7.385722 17.54939 26.203
0.5689859 103.4564 6.743875 -0.7871137 0.2595826 0.03818553 5.271903 -25.78808 7.199807 -0 32.94295 -0 -6.801707 -9.573149 -4.161886 -5.194461 12.39872 -20.64378 -0 6.450247 -0 0.06207183 -22.96657 20.96982 -0.0597849 -1.06821 4.29518 0.5022974 7.772825 -7.31137 1.412415 21.78913 8.437497 5.452133 -22.64309 8.720639 5.974789 -17.49594 10.61859 89.05007 36.87139 -24.08986 -0 0 14.51431 -8.342664 10.14169 3.36118 7.17959 -21.66253 -2.53249 -97.50353 39.11027 25.34903 0 0 -26.23947 -6.484681 16.9748 24.98854
0.7460874 102.8817 9.279209 -0.9183836 1.185787 0.09145036 5.623981 -29.72279 6.378916 -0 27.30147 -0 -6.395772 -8.240208 -3.767572 -5.252568 12.75118 -19.44911 -0 6.523348 -0 0.9519225 -23.78934 20.17384 -0.1789511 -0.9488969 4.070343 0.8368477 7.74489 -7.475891 1.225078 21.73734 8.497709 5.408561 -23.15832 8.65595 5.879498 -17.43783 10.70982 89.13382 36.7946 -24.15767 -0 0 13.98029 -8.469018 9.92112 3.740278 6.954328 -21.58761 -2.614921 -96.85245 38.48259 24.7041 0 0 -26.09219 -5.807148 16.39677 23.97904
0.9229112 102.0198 12.33939 -0.9660353 2.118097 0.2233756 5.859493 -33.2255 5.557689 -0 21.39427 -0 -5.981683 -6.80771 -3.358853 -5.347389 13.39024 -18.40298 -0 7.041139 -0 1.693738 -24.41581 19.32735 -0.3210305 -0.8443346 3.843325 1.175165 7.711108 -7.639004 1.054092 21.69873 8.525466 5.346168 -23.6249 8.572759 5.80283 -17.3784 10.80673 89.16148 36.66728 -24.1764 -0 0 13.4978 -8.56815 9.671543 4.11726 6.703937 -21.47906 -2.706591 -96.26772 37.89819 24.11861 0 0 -25.88042 -5.291745 15.84785 23.13521
1.073449 100.9842 16.01649 -1.042221 3.007858 0.4792388 6.12999 -35.83266 4.901034 -0 16.45851 -0 -5.782574 -5.058766 -2.987639 -5.353493 14.26184 -17.54818 -0 8.346481 -0 1.757758 -24.62502 18.23554 -0.4797259 -0.7510046 3.626222 1.502043 7.674693 -7.790262 0.8993402 21.67644 8.527809 5.267638 -24.03282 8.477348 5.739537 -17.31863 10.90436 89.13741 36.5256 -24.13462 -0 0 13.0599 -8.686135 9.437809 4.500831 6.43627 -21.34664 -2.801497 -95.7297 37.34502 23.58227 0 0 -25.61742 -4.895047 15.33779 22.42021
1.172075 99.96457 20.37378 -1.243431 3.800812 0.9101929 6.538665 -37.03765 4.496649 -0 13.44126 -0 -5.904275 -3.15611 -2.698188 -5.158711 15.22238 -16.86892 -0 10.73664 -0 0.6078821 -24.1043 16.58038 -0.6475359 -0.6660584 3.437658 1.795839 7.640097 -7.914298 0.7635243 21.67471 8.510874 5.175749 -24.36232 8.377238 5.684949 -17.26131 10.99667 89.05859 36.41128 -24.00911 -0 0 12.66906 -8.878538 9.275366 4.898878 6.160534 -21.20003 -2.891498 -95.22558 36.81245 23.09562 0 0 -25.3149 -4.578286 14.88127 21.8069
1.208146 99.18043 25.41545 -1.61728 4.377887 1.530284 7.06266 -36.38052 4.297387 -0 12.76752 -0 -6.284874 -1.675792 -2.545676 -4.705001 16.00319 -16.23241 -0 14.49352 -0 -2.007527 -22.46309 14.16718 -0.8201 -0.5855139 3.293588 2.040548 7.611595 -7.99786 0.6477994 21.69668 8.479718 5.071862 -24.59862 8.27796 5.634342 -17.20901 11.07994 88.91644 36.3584 -23.77124 -0 0 12.32594 -9.200321 9.232076 5.324889 5.880479 -21.04471 -2.970286 -94.73911 36.2807 22.65646 0 0 -24.9763 -4.303999 14.48323 21.26466
1.200078 98.8219 31.06974 -2.148498 4.541339 2.249894 7.635959 -33.78947 4.210926 -0 14.09278 -0 -6.723668 -1.318165 -2.589393 -4.035697 16.21773 -15.39118 -0 20.01109 -0 -5.560287 -19.38031 11.34963 -0.9906084 -0.5057916 3.215031 2.21543 7.59533 -8.024665 0.5551924 21.74443 8.439819 4.958899 -24.72161 8.186235 5.583238 -17.1664 11.14988 88.69831 36.4012 -23.38651 -0 0 12.03921 -9.709594 9.358929 5.790727 5.602918 -20.8878 -3.030144 -94.26068 35.7304 22.27171 0 0 -24.60677 -4.036362 14.15022 20.76847
1.196539 98.99984 37.18035 -2.746613 4.029915 2.831075 8.235852 -29.7203 4.211349 -0 16.42485 -0 -7.051758 -2.402713 -2.827127 -3.299202 15.37064 -14.13335 -0 27.79601 -0 -8.75973 -14.97368 9.083671 -1.149723 -0.4242151 3.227963 2.295603 7.59898 -7.975747 0.4903571 21.81866 8.396293 4.841232 -24.70751 8.10915 5.527027 -17.14179 11.20178 88.3865 36.57039 -22.8147 -0 0 11.82857 -10.46363 9.703967 6.307296 5.337676 -20.73693 -3.06211 -93.79025 35.14491 21.9606 0 0 -24.21197 -3.742695 13.88937 20.29978
1.256409 99.7294 43.50342 -3.212688 2.714931 2.962094 8.753178 -24.86106 4.288123 -0 18.46133 -0 -7.258669 -4.570264 -3.115815 -2.709108 12.88336 -12.53497 -0 37.9729 -0 -10.41821 -10.08603 8.240002 -1.285438 -0.3400441 3.362918 2.252837 7.630992 -7.830121 0.4591166 21.91862 8.352545 4.724314 -24.53178 8.052865 5.460239 -17.1495 11.23075 87.95821 36.88869 -22.01162 -0 0 11.72877 -11.51205 10.30314 6.884766 5.097769 -20.59881 -3.056014 -93.34194 34.51488 21.7593 0 0 -23.79715 -3.395356 13.70733 19.84754
1.411276 100.9251 49.74395 -3.210897 0.8997928 2.502523 8.750204 -19.60339 4.265935 -0 18.92609 -0 -7.384539 -6.936119 -3.196464 -2.494275 8.291405 -10.97141 -0 49.28603 -0 -10.342 -6.017388 8.820868 -1.387439 -0.2547984 3.647415 2.065085 7.69841 -7.570481 0.464895 22.04214 8.307555 4.611675 -24.18114 8.018296 5.375244 -17.21052 11.2341 87.38724 37.35876 -20.93492 -0 0 11.78399 -12.88606 11.16065 7.538549 4.893438 -20.47408 -3.003474 -92.93938 33.8352 21.71372 0 0 -23.35965 -2.972658 13.59973 19.4004
1.632708 102.3829 55.67503 -2.424795 -0.7821681 1.684294 7.739397 -13.90617 3.913082 -0 17.18959 -0 -7.322641 -8.587597 -2.896123 -2.739934 1.76889 -9.740509 -0 58.77884 -0 -9.303973 -3.812401 10.06259 -1.453933 -0.1722723 4.092969 1.731124 7.804358 -7.192523 0.5041555 22.1852 8.253224 4.500989 -23.669 7.996308 5.261976 -17.34968 11.21511 86.65027 37.94671 -19.55683 -0 0 12.03392 -14.58385 12.22622 8.294003 4.723539 -20.35125 -2.903025 -92.60534 33.09809 21.86261 0 0 -22.87963 -2.462745 13.53784 18.93849
1.84536 103.7944 61.25351 -0.9818015 -2.026023 0.9037904 5.979208 -7.806401 3.353803 -0 14.01466 -0 -6.873437 -9.231708 -2.367094 -3.114693 -5.543969 -8.726257 -0 63.37512 -0 -8.239131 -3.603447 11.37855 -1.497466 -0.09818509 4.681852 1.282871 7.945745 -6.713371 0.5649518 22.34165 8.173772 4.382048 -23.04285 7.966632 5.111542 -17.58773 11.18562 85.73558 38.56862 -17.88039 -0 0 12.49907 -16.55369 13.38405 9.179636 4.569055 -20.20255 -2.76504 -92.35383 32.29168 22.21972 0 0 -22.31313 -1.879217 13.46576 18.44187
2.00067 104.8381 66.58502 0.4222827 -3.090071 0.3446687 4.464777 -1.847378 2.990359 -0 11.05183 -0 -5.998265 -9.484646 -1.965805 -2.962757 -12.21133 -7.555074 -0 61.96292 -0 -7.508421 -4.573009 12.84311 -1.542968 -0.03851157 5.364938 0.7818098 8.112212 -6.170385 0.6325089 22.50343 8.050656 4.240771 -22.36994 7.905399 4.924077 -17.9296 11.16391 84.65048 39.09888 -15.94956 -0 0 13.17529 -18.68699 14.47774 10.20385 4.396885 -19.98782 -2.611363 -92.19274 31.413 22.76893 0 0 -21.598 -1.283403 13.32249 17.92235
2.134772 105.2953 71.8068 1.12921 -4.175999 -0.07179441 3.889302 3.311059 2.958147 -0 9.297935 -0 -4.893357 -10.30119 -1.827379 -1.90094 -17.50896 -6.044502 -0 55.51828 -0 -6.931768 -5.659756 14.59461 -1.615701 0.004364338 6.075321 0.2967547 8.287986 -5.608949 0.6980038 22.66126 7.873985 4.069052 -21.70836 7.79921 4.714564 -18.35463 11.16709 83.42877 39.41009 -13.84976 -0 0 14.03385 -20.83734 15.37192 11.33186 4.176344 -19.67136 -2.468027 -92.1282 30.48349 23.4692 0 0 -20.68186 -0.7822786 13.077 17.4453
2.332968 105.1077 77.04374 1.02669 -5.028841 -0.518226 4.127048 7.411012 3.069205 -0 8.648668 -0 -3.824319 -12.10768 -1.765883 -0.1496926 -21.51468 -4.374034 -0 45.90781 -0 -6.303545 -6.221476 16.35514 -1.727569 0.03518334 6.746838 -0.1194202 8.456748 -5.070438 0.7613679 22.80417 7.653482 3.872773 -21.09077 7.655142 4.509325 -18.81625 11.20371 82.13944 39.42194 -11.70569 -0 0 15.01723 -22.85921 16.00708 12.48683 3.897446 -19.24428 -2.356604 -92.15665 29.54617 24.25477 0 0 -19.5618 -0.4837019 12.74177 17.10263
2.660276 104.3595 82.42081 0.4445167 -5.26683 -1.087737 4.597671 10.57084 3.134906 -0 8.684028 -0 -2.936453 -14.49094 -1.564078 1.69973 -24.52011 -2.894849 -0 35.21145 -0 -5.631205 -6.168232 17.6998 -1.873021 0.06468783 7.325224 -0.4376148 8.606405 -4.58869 0.826634 22.91956 7.418684 3.670191 -20.53128 7.498915 4.335487 -19.25288 11.27203 80.8846 39.12612 -9.672309 -0 0 16.03694 -24.64058 16.40735 13.57515 3.576317 -18.73428 -2.290111 -92.25212 28.64742 25.0338 0 0 -18.30452 -0.4434969 12.35603 16.95848
3.138251 103.229 88.06598 -0.1526465 -4.839012 -1.74364 4.742899 13.08188 3.111834 -0 9.339545 -0 -2.202356 -16.48178 -1.189026 3.018237 -26.62984 -1.945252 -0 25.52212 -0 -5.055654 -5.801116 18.44041 -2.035483 0.1038516 7.771352 -0.6476467 8.73083 -4.191149 0.8964252 22.99598 7.207496 3.482553 -20.03871 7.364039 4.211871 -19.60434 11.36293 79.77744 38.57898 -7.90957 -0 0 16.98581 -26.11546 16.64849 14.5153 3.246018 -18.19593 -2.273614 -92.36585 27.82336 25.6992 0 0 -17.03018 -0.6477066 11.96274 17.01845
